<svg width="44" height="50" viewBox="0 0 44 50" fill="none" xmlns="http://www.w3.org/2000/svg">
<path d="M12.7503 6.5001H18.9169V0.333435H12.7503V6.5001ZM25.0836 6.5001V0.333435H31.2502V6.5001H25.0836ZM12.7503 31.1667V25.0001H18.9169V31.1667H12.7503ZM37.4169 18.8334V12.6668H43.5836V18.8334H37.4169ZM37.4169 31.1667V25.0001H43.5836V31.1667H37.4169ZM25.0836 31.1667V25.0001H31.2502V31.1667H25.0836ZM37.4169 6.5001V0.333435H43.5836V6.5001H37.4169ZM18.9169 12.6668V6.5001H25.0836V12.6668H18.9169ZM0.416931 49.6667V0.333435H6.58359V6.5001H12.7503V12.6668H6.58359V18.8334H12.7503V25.0001H6.58359V49.6667H0.416931ZM31.2502 25.0001V18.8334H37.4169V25.0001H31.2502ZM18.9169 25.0001V18.8334H25.0836V25.0001H18.9169ZM12.7503 18.8334V12.6668H18.9169V18.8334H12.7503ZM25.0836 18.8334V12.6668H31.2502V18.8334H25.0836ZM31.2502 12.6668V6.5001H37.4169V12.6668H31.2502Z" fill="#FF416F"/>
</svg>
