<svg width="194" height="40" viewBox="0 0 194 40" fill="none" xmlns="http://www.w3.org/2000/svg">
<g clip-path="url(#clip0_2459_2602)">
<path d="M22.4039 4.21506C22.4039 1.88802 20.518 0 18.1903 0C15.8625 0 13.9766 1.88802 13.9766 4.21506C13.9766 6.54141 15.8625 8.42875 18.1903 8.42875C20.518 8.42875 22.4039 6.54141 22.4039 4.21506ZM141.816 14.4662H149.283V10.9295H130.675V14.4662H137.827V33.4278H141.816V14.4662ZM156.957 27.2351C156.957 29.5294 155.806 30.6768 153.506 30.6768C151.798 30.6768 150.944 29.9403 150.944 28.4667C150.944 26.4823 152.457 25.4894 155.485 25.4894C155.812 25.4894 156.303 25.5605 156.957 25.7048V27.2351ZM162.109 32.504C161.229 31.9419 160.788 30.5674 160.788 28.3812V24.8712C160.788 21.6935 160.205 19.5347 159.039 18.3954C157.873 17.2562 156.038 16.6866 153.532 16.6866C151.711 16.6866 150.141 17.0004 148.822 17.6295L149.648 20.6165C150.617 20.1316 151.822 19.8889 153.26 19.8889C155.698 19.8889 156.917 20.8585 156.917 22.7972C153.755 22.1598 150.674 23.098 149.25 24.171C147.825 25.2446 147.112 26.7312 147.112 28.6322C147.112 30.2576 147.619 31.5118 148.631 32.3959C149.644 33.2801 151.035 33.7225 152.805 33.7225C153.745 33.7225 154.648 33.5413 155.512 33.1816C156.376 32.8219 156.982 32.3576 157.33 31.7894C157.484 32.266 157.761 32.7303 158.222 33.1133C159.704 34.3469 161.745 33.4476 162.109 32.504ZM175.867 25.2302C175.867 27.0464 175.431 28.334 174.709 29.2182C172.947 31.3723 168.459 31.2423 168.459 28.5009V22.0292C168.459 19.6297 172.521 18.6628 174.716 21.1348C175.447 21.9581 175.867 23.2909 175.867 25.2302ZM177.684 31.5446C179.131 30.0935 179.855 28.0243 179.855 25.3348C179.855 19.5695 177.237 16.6872 172.002 16.6872C170.601 16.6872 169.42 17.1536 168.459 18.087V16.982H164.627V33.9161C164.627 33.9161 164.587 35.0088 164.564 35.2146C164.371 37.0185 163.864 38.1475 163.044 38.6009C163.348 39.5658 165.33 40.5901 166.885 39.4523C167.369 39.098 167.835 38.432 168.028 37.9691C168.483 36.877 168.458 35.8191 168.458 35.1367V33.0011C169.45 33.4818 170.549 33.7232 171.756 33.7232C174.262 33.7225 176.237 32.9963 177.684 31.5446ZM191.662 20.8134L192.765 17.8367C191.263 17.0695 189.658 16.6866 187.952 16.6866C186.266 16.6866 184.881 17.0825 183.798 17.8743C182.715 18.6669 182.174 19.7733 182.174 21.1943C182.174 23.3107 183.59 24.9567 186.421 26.1321C187.72 26.6751 188.595 27.1456 189.045 27.5442C189.494 27.9436 189.719 28.4558 189.719 29.0794C189.719 30.1441 188.972 30.6761 187.48 30.6761C186.038 30.6761 184.744 30.2173 183.598 29.2996L182.233 32.3556C183.266 32.9081 184.112 33.274 184.772 33.4524C185.432 33.6309 186.308 33.7219 187.403 33.7219C189.347 33.7219 190.883 33.2842 192.013 32.4103C193.143 31.5364 193.708 30.3376 193.708 28.8134C193.708 27.6687 193.391 26.6929 192.757 25.8853C192.123 25.0777 191.085 24.3891 189.644 23.8215C188.202 23.2533 187.262 22.8006 186.821 22.4635C186.382 22.1257 186.162 21.7468 186.162 21.3276C186.162 20.2629 186.831 19.7316 188.169 19.7316C189.661 19.7323 190.824 20.0927 191.662 20.8134Z" fill="#F58220"/>
<path d="M29.7424 22.2096H24.9577V28.3825C24.9577 29.0581 25.0883 29.5183 25.3571 29.7611C26.3746 30.5967 28.6052 30.0202 28.8261 29.2338C29.5544 29.5429 30.2184 31.1984 29.2337 32.3664C28.662 33.0441 27.3436 33.427 25.3571 33.427C23.7098 33.427 22.312 33.0605 21.4518 32.2891C20.6907 31.5185 20.303 30.2192 20.303 28.3832V22.2103H18.6427H18.2057H13.382V28.3832C13.382 29.0588 13.5127 29.519 13.7814 29.7617C14.7989 30.5974 17.0295 30.0209 17.2504 29.2345C17.9787 29.5436 18.6427 31.1991 17.658 32.3671C17.0665 33.0687 15.6455 33.4277 13.7814 33.4277C12.1341 33.4277 10.7364 33.0612 9.87611 32.2898C9.11502 31.5192 8.72729 30.2199 8.72729 28.3838V22.211H6.6307V18.8938H8.72729V14.7594H13.382V18.8938H18.2057H18.6427H20.303V14.7594H24.9577V18.8938H29.7424V22.2096ZM36.0821 34.8822V9.32718C36.0821 9.32718 36.0821 4.20947 30.9644 4.20947H25.0131C25.0131 4.21221 25.0145 4.21426 25.0145 4.21699C25.0145 7.98347 21.9599 11.0408 18.1907 11.0408C14.4215 11.0408 11.3668 7.98347 11.3668 4.21699C11.3668 4.21426 11.3689 4.21221 11.3689 4.20947H5.40872C5.40872 4.20947 0.291016 4.20947 0.291016 9.32718V34.8822C0.291016 34.8822 0.291016 39.9999 5.40872 39.9999H30.9644C30.9644 39.9999 36.0821 39.9999 36.0821 34.8822ZM55.6229 14.4661H63.0895V10.9287H44.4821V14.4661H51.6342V33.427H55.6229V14.4661ZM70.764 27.235C70.764 29.5292 69.6139 30.6767 67.3128 30.6767C65.6053 30.6767 64.7512 29.9402 64.7512 28.4666C64.7512 26.4821 66.2645 25.4892 69.2918 25.4892C69.6186 25.4892 70.1089 25.5604 70.764 25.7046V27.235ZM75.9159 32.5039C75.0352 31.9418 74.5955 30.5673 74.5955 28.3811V24.8711C74.5955 21.6934 74.0122 19.5345 72.8463 18.3953C71.6804 17.2561 69.8443 16.6864 67.3388 16.6864C65.5185 16.6864 63.9484 17.0003 62.6293 17.6294L63.4554 20.6163C64.4244 20.1315 65.6286 19.8888 67.0673 19.8888C69.5051 19.8888 70.7244 20.8584 70.7244 22.797C67.5624 22.1597 64.4811 23.0979 63.0567 24.1708C61.6316 25.2444 60.9198 26.7311 60.9198 28.6321C60.9198 30.2575 61.4258 31.5116 62.4385 32.3958C63.4506 33.28 64.8415 33.7224 66.6112 33.7224C67.5521 33.7224 68.4548 33.5412 69.3191 33.1815C70.1835 32.8218 70.7893 32.3575 71.1374 31.7893C71.2906 32.2659 71.5682 32.7302 72.0284 33.1131C73.5103 34.3467 75.5521 33.4475 75.9159 32.5039ZM89.673 25.2301C89.673 27.0463 89.2374 28.3339 88.5153 29.2181C86.7545 31.3721 82.2652 31.2422 82.2652 28.5008V22.0291C82.2652 19.6296 86.3278 18.6627 88.5228 21.134C89.2545 21.958 89.673 23.2908 89.673 25.2301ZM91.4913 31.5445C92.9382 30.0934 93.6617 28.0242 93.6617 25.3347C93.6617 19.5694 91.0441 16.6871 85.8087 16.6871C84.4076 16.6871 83.2266 17.1535 82.2652 18.0869V16.9818H78.4338V33.9159C78.4338 33.9159 78.3941 35.0087 78.3722 35.2145C78.178 37.0184 77.6706 38.1474 76.8507 38.6008C77.155 39.5657 79.136 40.59 80.6924 39.4521C81.1759 39.0979 81.6429 38.4319 81.8351 37.9689C82.2905 36.8762 82.2652 35.819 82.2652 35.1366V33.0003C83.2567 33.481 84.3563 33.7231 85.5633 33.7231C88.0681 33.7224 90.0443 32.9962 91.4913 31.5445ZM107.987 25.2301C107.987 27.0463 107.551 28.3339 106.829 29.2181C105.068 31.3721 100.579 31.2422 100.579 28.5008V22.0291C100.579 19.6296 104.641 18.6627 106.836 21.134C107.568 21.958 107.986 23.2908 107.987 25.2301ZM109.804 31.5445C111.252 30.0934 111.975 28.0242 111.976 25.3347C111.976 19.5694 109.357 16.6871 104.122 16.6871C102.721 16.6871 101.54 17.1535 100.579 18.0869V16.9818H96.7471L96.7478 33.9159C96.7478 33.9159 96.7081 35.0087 96.6856 35.2145C96.4914 37.0184 95.9847 38.1474 95.1648 38.6008C95.4691 39.5657 97.4501 40.59 99.0058 39.4521C99.4899 39.0979 99.9563 38.4319 100.149 37.9689C100.604 36.8762 100.579 35.819 100.579 35.1366V33.0003C101.571 33.481 102.67 33.7231 103.877 33.7231C106.382 33.7224 108.358 32.9962 109.804 31.5445ZM129.836 16.9812H125.868L121.771 28.338L117.262 16.9812H113.293L118.432 29.7351C119.25 31.7605 119.659 33.2649 119.659 34.2476C119.659 35.6556 118.767 36.8653 117.413 36.8653C116.471 36.8653 116.116 36.1862 115.973 35.6788C115.246 35.9879 114.798 37.6428 115.783 38.8114C116.307 39.405 117.167 39.8727 118.142 39.8727C119.578 39.8727 120.516 39.089 120.984 38.6603C121.452 38.2302 121.973 37.4253 122.377 36.4926C122.448 36.3538 122.512 36.2115 122.567 36.0652L129.836 16.9812Z" fill="#0077C0"/>
</g>
<defs>
<clipPath id="clip0_2459_2602">
<rect width="193.418" height="40" fill="white" transform="translate(0.291016)"/>
</clipPath>
</defs>
</svg>
